<svg width="83" height="83" viewBox="0 0 83 83" fill="none" xmlns="http://www.w3.org/2000/svg">
<path d="M41.5007 55.3336H41.5284M41.5007 34.5836V44.9586M36.5726 18.0423L12.1637 58.7919C11.6608 59.6635 11.3948 60.6516 11.3921 61.6579C11.3895 62.6642 11.6503 63.6537 12.1486 64.5279C12.6469 65.4022 13.3654 66.1308 14.2326 66.6412C15.0998 67.1517 16.0856 67.4263 17.0918 67.4377H65.9096C66.9163 67.4273 67.9026 67.1534 68.7705 66.6432C69.6383 66.1329 70.3573 65.4042 70.8558 64.5296C71.3543 63.655 71.615 62.665 71.6118 61.6583C71.6086 60.6516 71.3418 59.6633 70.8378 58.7919L46.4323 18.0423C45.919 17.1948 45.1957 16.494 44.3324 16.0076C43.4692 15.5212 42.4951 15.2656 41.5042 15.2656C40.5133 15.2656 39.5392 15.5212 38.6759 16.0076C37.8126 16.494 37.0894 17.1948 36.5761 18.0423" stroke="#DC2626" stroke-width="4.15" stroke-miterlimit="10" stroke-linecap="round" stroke-linejoin="round"/>
</svg>
