<svg width="8" height="14" viewBox="0 0 8 14" fill="none" xmlns="http://www.w3.org/2000/svg">
<path d="M0.999541 13.9982C0.76641 13.9986 0.540473 13.9174 0.360961 13.7687C0.156905 13.5995 0.0285481 13.3561 0.00421792 13.0922C-0.0201198 12.8282 0.0615605 12.5654 0.231246 12.3618L4.70133 7.01367L0.390891 1.65557C0.223494 1.44943 0.145171 1.18507 0.173262 0.921016C0.201346 0.656962 0.333541 0.414992 0.540564 0.248691C0.749259 0.0650587 1.02511 -0.0231829 1.30164 0.00522901C1.57818 0.0336409 1.83032 0.176127 1.99733 0.398356L6.81663 6.38507C7.11928 6.75326 7.11928 7.28408 6.81663 7.65226L1.8277 13.639C1.62469 13.8839 1.31707 14.0173 0.999541 13.9982Z" fill="#003A33"/>
</svg>
