<svg width="33" height="33" viewBox="0 0 33 33" fill="none" xmlns="http://www.w3.org/2000/svg">
<rect width="32.2707" height="32.2707" rx="4.45113" fill="#EFFFF7"/>
<path fill-rule="evenodd" clip-rule="evenodd" d="M19.1202 7.87918L20.65 8.96497C21.1007 9.28545 21.4946 9.56504 21.7692 9.82794C22.0621 10.1075 22.325 10.4656 22.325 10.9546C22.325 11.442 22.0621 11.8001 21.7692 12.0805C21.4938 12.3434 21.1007 12.623 20.65 12.9426L16.9378 15.5791L20.65 18.2147C21.1007 18.5343 21.4946 18.8139 21.7692 19.0777C22.0621 19.3572 22.325 19.7153 22.325 20.2035C22.325 20.6917 22.0621 21.0498 21.7692 21.3302C21.4938 21.5923 21.1007 21.8727 20.65 22.1923L19.1202 23.279C18.511 23.7113 17.9977 24.076 17.5712 24.2938C17.1372 24.515 16.6064 24.6819 16.0773 24.4107C15.5449 24.1386 15.3721 23.6095 15.3012 23.1287C15.231 22.6564 15.231 22.0279 15.231 21.2843V16.7809L12.0429 19.0126C11.9069 19.1077 11.7387 19.145 11.5752 19.1161C11.4117 19.0872 11.2664 18.9946 11.1712 18.8586C11.076 18.7226 11.0388 18.5543 11.0677 18.3908C11.0965 18.2273 11.1892 18.082 11.3252 17.9869L14.7653 15.5791L11.3252 13.1705C11.2578 13.1233 11.2004 13.0634 11.1562 12.9941C11.1121 12.9248 11.0819 12.8474 11.0677 12.7665C11.0534 12.6855 11.0551 12.6026 11.0729 12.5223C11.0907 12.442 11.1241 12.3661 11.1712 12.2987C11.2183 12.2314 11.2783 12.174 11.3476 12.1298C11.4169 12.0856 11.4942 12.0555 11.5752 12.0412C11.6561 12.0269 11.7391 12.0287 11.8193 12.0465C11.8996 12.0642 11.9756 12.0976 12.0429 12.1447L15.231 14.3764V9.873C15.231 9.12939 15.231 8.50094 15.3012 8.02857C15.3721 7.54785 15.5449 7.01872 16.0773 6.74748C16.6064 6.47624 17.1372 6.64232 17.5712 6.86432C17.9969 7.08131 18.511 7.44686 19.1202 7.87918ZM16.4829 16.7909V21.2334C16.4829 22.0421 16.4846 22.5762 16.5397 22.9451C16.5655 23.1237 16.5989 23.218 16.6231 23.2648C16.6348 23.2837 16.6412 23.2932 16.6423 23.2932L16.6465 23.2957L16.6523 23.2982C16.6535 23.2993 16.6657 23.2987 16.6891 23.2965C16.7425 23.289 16.8401 23.2606 17.002 23.178C17.3359 23.0077 17.7749 22.6981 18.4375 22.2282L19.8872 21.1983C20.3871 20.8436 20.7034 20.6166 20.9037 20.4247C20.9644 20.3713 21.0169 20.3095 21.0598 20.2411C21.0732 20.2169 21.0732 20.2085 21.0732 20.2043V20.2027C21.0732 20.1977 21.0732 20.1893 21.0598 20.166C21.0169 20.0975 20.9644 20.0357 20.9037 19.9823C20.7034 19.7904 20.3863 19.5634 19.8872 19.2087L16.4829 16.7909ZM16.4829 14.3664V9.92391C16.4829 9.1152 16.4846 8.58106 16.5397 8.21301C16.5655 8.03358 16.5989 7.9401 16.6231 7.89253C16.6285 7.88244 16.635 7.87293 16.6423 7.86415L16.6465 7.86165L16.6523 7.85915C16.6646 7.85835 16.6769 7.85891 16.6891 7.86082C16.7425 7.86916 16.8401 7.8967 17.002 7.97933C17.3359 8.14958 17.7749 8.45921 18.4375 8.92909L19.8872 9.95897C20.3871 10.3137 20.7034 10.5407 20.9037 10.7326C20.9644 10.786 21.0169 10.8478 21.0598 10.9162C21.0732 10.9404 21.0732 10.9488 21.0732 10.953V10.9546C21.0732 10.9596 21.0732 10.968 21.0598 10.9922C21.0169 11.0606 20.9644 11.1225 20.9037 11.1758C20.7034 11.3677 20.3863 11.5939 19.8872 11.9486L16.4829 14.3664Z" fill="#2CA294"/>
</svg>
