<svg width="22" height="22" viewBox="0 0 22 22" fill="none" xmlns="http://www.w3.org/2000/svg">
<rect width="22" height="22" rx="2.21257" fill="#FDEAEA"/>
<path fill-rule="evenodd" clip-rule="evenodd" d="M13.0343 5.3714L14.0772 6.11163C14.3845 6.33011 14.653 6.52071 14.8402 6.69994C15.0399 6.89054 15.2191 7.13463 15.2191 7.46804C15.2191 7.80032 15.0399 8.0444 14.8402 8.23558C14.6524 8.4148 14.3845 8.6054 14.0772 8.82332L11.5465 10.6207L14.0772 12.4175C14.3845 12.6354 14.653 12.826 14.8402 13.0058C15.0399 13.1964 15.2191 13.4405 15.2191 13.7733C15.2191 14.1062 15.0399 14.3502 14.8402 14.5414C14.6524 14.7201 14.3845 14.9112 14.0772 15.1292L13.0343 15.87C12.619 16.1647 12.269 16.4133 11.9783 16.5618C11.6824 16.7126 11.3206 16.8264 10.9599 16.6415C10.5969 16.456 10.4791 16.0953 10.4307 15.7675C10.3829 15.4455 10.3829 15.0171 10.3829 14.5101V11.44L8.20947 12.9614C8.11674 13.0263 8.00204 13.0517 7.89059 13.032C7.77914 13.0123 7.68007 12.9492 7.61519 12.8564C7.5503 12.7637 7.52491 12.649 7.54459 12.5375C7.56428 12.4261 7.62743 12.327 7.72016 12.2621L10.0654 10.6207L7.72016 8.97865C7.67425 8.94652 7.63511 8.90566 7.60499 8.85841C7.57486 8.81115 7.55434 8.75843 7.54459 8.70324C7.53485 8.64806 7.53606 8.5915 7.54817 8.53678C7.56029 8.48207 7.58306 8.43027 7.61519 8.38436C7.64732 8.33845 7.68817 8.29931 7.73543 8.26919C7.78268 8.23906 7.8354 8.21854 7.89059 8.20879C7.94577 8.19905 8.00234 8.20026 8.05705 8.21237C8.11176 8.22449 8.16356 8.24726 8.20947 8.27939L10.3829 9.8008V6.73066C10.3829 6.22371 10.3829 5.79528 10.4307 5.47325C10.4791 5.14552 10.5969 4.7848 10.9599 4.59989C11.3206 4.41497 11.6824 4.5282 11.9783 4.67954C12.2685 4.82747 12.619 5.07668 13.0343 5.3714ZM11.2364 11.4468V14.4754C11.2364 15.0267 11.2375 15.3909 11.2751 15.6424C11.2927 15.7641 11.3155 15.8284 11.332 15.8603C11.3399 15.8732 11.3443 15.8796 11.345 15.8796L11.3479 15.8813L11.3519 15.883C11.3526 15.8838 11.361 15.8834 11.3769 15.8819C11.4133 15.8768 11.4799 15.8574 11.5903 15.8011C11.8179 15.685 12.1171 15.474 12.5689 15.1536L13.5572 14.4515C13.898 14.2097 14.1136 14.055 14.2502 13.9241C14.2915 13.8877 14.3274 13.8456 14.3566 13.7989C14.3657 13.7824 14.3657 13.7767 14.3657 13.7739V13.7727C14.3657 13.7693 14.3657 13.7636 14.3566 13.7477C14.3274 13.7011 14.2915 13.6589 14.2502 13.6225C14.1136 13.4917 13.8974 13.3369 13.5572 13.0951L11.2364 11.4468ZM11.2364 9.79397V6.76537C11.2364 6.21404 11.2375 5.8499 11.2751 5.59899C11.2927 5.47666 11.3155 5.41294 11.332 5.38051C11.3356 5.37363 11.34 5.36714 11.345 5.36116L11.3479 5.35946L11.3519 5.35775C11.3602 5.3572 11.3686 5.35759 11.3769 5.35889C11.4133 5.36458 11.4799 5.38335 11.5903 5.43968C11.8179 5.55575 12.1171 5.76683 12.5689 6.08716L13.5572 6.78927C13.898 7.03108 14.1136 7.18583 14.2502 7.3167C14.2915 7.35305 14.3274 7.39522 14.3566 7.44187C14.3657 7.45837 14.3657 7.46406 14.3657 7.4669V7.46804C14.3657 7.47146 14.3657 7.47714 14.3566 7.49364C14.3274 7.5403 14.2915 7.58246 14.2502 7.61882C14.1136 7.74968 13.8974 7.90387 13.5572 8.14568L11.2364 9.79397Z" fill="#DC2626"/>
</svg>
