<svg width="32" height="37" viewBox="0 0 32 37" fill="none" xmlns="http://www.w3.org/2000/svg">
<path d="M0.620035 26.9078C0.620035 26.0238 0.819369 25.2308 1.21804 24.5288C1.6167 23.8182 2.15837 23.2635 2.84304 22.8648C3.53637 22.4662 4.30337 22.2668 5.14404 22.2668C6.13204 22.2668 6.99437 22.5052 7.73104 22.9818C8.4677 23.4585 9.00504 24.1345 9.34304 25.0098H7.92604C7.6747 24.4638 7.3107 24.0435 6.83404 23.7488C6.36604 23.4542 5.8027 23.3068 5.14404 23.3068C4.51137 23.3068 3.9437 23.4542 3.44104 23.7488C2.93837 24.0435 2.54404 24.4638 2.25804 25.0098C1.97204 25.5472 1.82904 26.1798 1.82904 26.9078C1.82904 27.6272 1.97204 28.2598 2.25804 28.8058C2.54404 29.3432 2.93837 29.7592 3.44104 30.0538C3.9437 30.3485 4.51137 30.4958 5.14404 30.4958C5.8027 30.4958 6.36604 30.3528 6.83404 30.0668C7.3107 29.7722 7.6747 29.3518 7.92604 28.8058H9.34304C9.00504 29.6725 8.4677 30.3442 7.73104 30.8208C6.99437 31.2888 6.13204 31.5228 5.14404 31.5228C4.30337 31.5228 3.53637 31.3278 2.84304 30.9378C2.15837 30.5392 1.6167 29.9888 1.21804 29.2868C0.819369 28.5848 0.620035 27.7918 0.620035 26.9078ZM14.64 24.1908C15.1774 24.1908 15.6627 24.3078 16.096 24.5418C16.5294 24.7672 16.8674 25.1095 17.11 25.5688C17.3614 26.0282 17.487 26.5872 17.487 27.2458V31.4448H16.317V27.4148C16.317 26.7042 16.1394 26.1625 15.784 25.7898C15.4287 25.4085 14.9434 25.2178 14.328 25.2178C13.704 25.2178 13.2057 25.4128 12.833 25.8028C12.469 26.1928 12.287 26.7605 12.287 27.5058V31.4448H11.104V21.8248H12.287V25.3348C12.521 24.9708 12.8417 24.6892 13.249 24.4898C13.665 24.2905 14.1287 24.1908 14.64 24.1908ZM18.9775 27.8568C18.9775 27.1288 19.1248 26.4918 19.4195 25.9458C19.7141 25.3912 20.1171 24.9622 20.6285 24.6588C21.1485 24.3555 21.7248 24.2038 22.3575 24.2038C22.9815 24.2038 23.5231 24.3382 23.9825 24.6068C24.4418 24.8755 24.7841 25.2135 25.0095 25.6208V24.3208H26.2055V31.4448H25.0095V30.1188C24.7755 30.5348 24.4245 30.8815 23.9565 31.1588C23.4971 31.4275 22.9598 31.5618 22.3445 31.5618C21.7118 31.5618 21.1398 31.4058 20.6285 31.0938C20.1171 30.7818 19.7141 30.3442 19.4195 29.7808C19.1248 29.2175 18.9775 28.5762 18.9775 27.8568ZM25.0095 27.8698C25.0095 27.3325 24.9011 26.8645 24.6845 26.4658C24.4678 26.0672 24.1731 25.7638 23.8005 25.5558C23.4365 25.3392 23.0335 25.2308 22.5915 25.2308C22.1495 25.2308 21.7465 25.3348 21.3825 25.5428C21.0185 25.7508 20.7281 26.0542 20.5115 26.4528C20.2948 26.8515 20.1865 27.3195 20.1865 27.8568C20.1865 28.4028 20.2948 28.8795 20.5115 29.2868C20.7281 29.6855 21.0185 29.9932 21.3825 30.2098C21.7465 30.4178 22.1495 30.5218 22.5915 30.5218C23.0335 30.5218 23.4365 30.4178 23.8005 30.2098C24.1731 29.9932 24.4678 29.6855 24.6845 29.2868C24.9011 28.8795 25.0095 28.4072 25.0095 27.8698ZM29.6476 25.2958V29.4948C29.6476 29.8415 29.7213 30.0885 29.8686 30.2358C30.0159 30.3745 30.2716 30.4438 30.6356 30.4438H31.5066V31.4448H30.4406C29.7819 31.4448 29.2879 31.2932 28.9586 30.9898C28.6293 30.6865 28.4646 30.1882 28.4646 29.4948V25.2958H27.5416V24.3208H28.4646V22.5268H29.6476V24.3208H31.5066V25.2958H29.6476Z" fill="#BCBCBC"/>
<path d="M10.5 10.5H17.5V9.5H10.5V10.5ZM10.5 7.5H21.5V6.5H10.5V7.5ZM10.5 4.5H21.5V3.5H10.5V4.5ZM7 17.077V1.616C7 1.15533 7.15433 0.771 7.463 0.463C7.77167 0.155 8.15567 0.000666667 8.615 0H23.385C23.845 0 24.229 0.154333 24.537 0.463C24.845 0.771667 24.9993 1.156 25 1.616V12.385C25 12.845 24.8457 13.2293 24.537 13.538C24.2283 13.8467 23.8443 14.0007 23.385 14H10.077L7 17.077ZM9.65 13H23.385C23.5383 13 23.6793 12.936 23.808 12.808C23.9367 12.68 24.0007 12.539 24 12.385V1.615C24 1.46167 23.936 1.32067 23.808 1.192C23.68 1.06333 23.539 0.999333 23.385 1H8.615C8.46167 1 8.32067 1.064 8.192 1.192C8.06333 1.32 7.99933 1.461 8 1.615V14.645L9.65 13Z" fill="#BCBCBC"/>
</svg>
