<svg width="84" height="38" viewBox="0 0 84 38" fill="none" xmlns="http://www.w3.org/2000/svg">
<path d="M1.02629 27.9078C1.02629 27.0238 1.22562 26.2308 1.62429 25.5288C2.02295 24.8182 2.56462 24.2635 3.24929 23.8648C3.94262 23.4662 4.70962 23.2668 5.55029 23.2668C6.53829 23.2668 7.40062 23.5052 8.13729 23.9818C8.87395 24.4585 9.41129 25.1345 9.74929 26.0098H8.33229C8.08095 25.4638 7.71695 25.0435 7.24029 24.7488C6.77229 24.4542 6.20895 24.3068 5.55029 24.3068C4.91762 24.3068 4.34995 24.4542 3.84729 24.7488C3.34462 25.0435 2.95029 25.4638 2.66429 26.0098C2.37829 26.5472 2.23529 27.1798 2.23529 27.9078C2.23529 28.6272 2.37829 29.2598 2.66429 29.8058C2.95029 30.3432 3.34462 30.7592 3.84729 31.0538C4.34995 31.3485 4.91762 31.4958 5.55029 31.4958C6.20895 31.4958 6.77229 31.3528 7.24029 31.0668C7.71695 30.7722 8.08095 30.3518 8.33229 29.8058H9.74929C9.41129 30.6725 8.87395 31.3442 8.13729 31.8208C7.40062 32.2888 6.53829 32.5228 5.55029 32.5228C4.70962 32.5228 3.94262 32.3278 3.24929 31.9378C2.56462 31.5392 2.02295 30.9888 1.62429 30.2868C1.22562 29.5848 1.02629 28.7918 1.02629 27.9078ZM14.6173 32.5618C13.9499 32.5618 13.3433 32.4102 12.7973 32.1068C12.2599 31.8035 11.8353 31.3745 11.5233 30.8198C11.2199 30.2565 11.0683 29.6065 11.0683 28.8698C11.0683 28.1418 11.2243 27.5005 11.5363 26.9458C11.8569 26.3825 12.2903 25.9535 12.8363 25.6588C13.3823 25.3555 13.9933 25.2038 14.6693 25.2038C15.3453 25.2038 15.9563 25.3555 16.5023 25.6588C17.0483 25.9535 17.4773 26.3782 17.7893 26.9328C18.1099 27.4875 18.2703 28.1332 18.2703 28.8698C18.2703 29.6065 18.1056 30.2565 17.7763 30.8198C17.4556 31.3745 17.0179 31.8035 16.4633 32.1068C15.9086 32.4102 15.2933 32.5618 14.6173 32.5618ZM14.6173 31.5218C15.0419 31.5218 15.4406 31.4222 15.8133 31.2228C16.1859 31.0235 16.4849 30.7245 16.7103 30.3258C16.9443 29.9272 17.0613 29.4418 17.0613 28.8698C17.0613 28.2978 16.9486 27.8125 16.7233 27.4138C16.4979 27.0152 16.2033 26.7205 15.8393 26.5298C15.4753 26.3305 15.0809 26.2308 14.6563 26.2308C14.2229 26.2308 13.8243 26.3305 13.4603 26.5298C13.1049 26.7205 12.8189 27.0152 12.6023 27.4138C12.3856 27.8125 12.2773 28.2978 12.2773 28.8698C12.2773 29.4505 12.3813 29.9402 12.5893 30.3388C12.8059 30.7375 13.0919 31.0365 13.4473 31.2358C13.8026 31.4265 14.1926 31.5218 14.6173 31.5218ZM23.2967 25.1908C24.1634 25.1908 24.8654 25.4552 25.4027 25.9838C25.94 26.5038 26.2087 27.2578 26.2087 28.2458V32.4448H25.0387V28.4148C25.0387 27.7042 24.861 27.1625 24.5057 26.7898C24.1504 26.4085 23.665 26.2178 23.0497 26.2178C22.4257 26.2178 21.9274 26.4128 21.5547 26.8028C21.1907 27.1928 21.0087 27.7605 21.0087 28.5058V32.4448H19.8257V25.3208H21.0087V26.3348C21.2427 25.9708 21.559 25.6892 21.9577 25.4898C22.365 25.2905 22.8114 25.1908 23.2967 25.1908ZM30.6631 32.5618C30.1171 32.5618 29.6275 32.4708 29.1941 32.2888C28.7608 32.0982 28.4185 31.8382 28.1671 31.5088C27.9158 31.1708 27.7771 30.7852 27.7511 30.3518H28.9731C29.0078 30.7072 29.1725 30.9975 29.4671 31.2228C29.7705 31.4482 30.1648 31.5608 30.6501 31.5608C31.1008 31.5608 31.4561 31.4612 31.7161 31.2618C31.9761 31.0625 32.1061 30.8112 32.1061 30.5078C32.1061 30.1958 31.9675 29.9662 31.6901 29.8188C31.4128 29.6628 30.9838 29.5112 30.4031 29.3638C29.8745 29.2252 29.4411 29.0865 29.1031 28.9478C28.7738 28.8005 28.4878 28.5882 28.2451 28.3108C28.0111 28.0248 27.8941 27.6522 27.8941 27.1928C27.8941 26.8288 28.0025 26.4952 28.2191 26.1918C28.4358 25.8885 28.7435 25.6502 29.1421 25.4768C29.5408 25.2948 29.9958 25.2038 30.5071 25.2038C31.2958 25.2038 31.9328 25.4032 32.4181 25.8018C32.9035 26.2005 33.1635 26.7465 33.1981 27.4398H32.0151C31.9891 27.0672 31.8375 26.7682 31.5601 26.5428C31.2915 26.3175 30.9275 26.2048 30.4681 26.2048C30.0435 26.2048 29.7055 26.2958 29.4541 26.4778C29.2028 26.6598 29.0771 26.8982 29.0771 27.1928C29.0771 27.4268 29.1508 27.6218 29.2981 27.7778C29.4541 27.9252 29.6448 28.0465 29.8701 28.1418C30.1041 28.2285 30.4248 28.3282 30.8321 28.4408C31.3435 28.5795 31.7595 28.7182 32.0801 28.8568C32.4008 28.9868 32.6738 29.1862 32.8991 29.4548C33.1331 29.7235 33.2545 30.0745 33.2631 30.5078C33.2631 30.8978 33.1548 31.2488 32.9381 31.5608C32.7215 31.8728 32.4138 32.1198 32.0151 32.3018C31.6251 32.4752 31.1745 32.5618 30.6631 32.5618ZM41.2511 25.3208V32.4448H40.0681V31.3918C39.8428 31.7558 39.5265 32.0418 39.1191 32.2498C38.7205 32.4492 38.2785 32.5488 37.7931 32.5488C37.2385 32.5488 36.7401 32.4362 36.2981 32.2108C35.8561 31.9768 35.5051 31.6302 35.2451 31.1708C34.9938 30.7115 34.8681 30.1525 34.8681 29.4938V25.3208H36.0381V29.3378C36.0381 30.0398 36.2158 30.5815 36.5711 30.9628C36.9265 31.3355 37.4118 31.5218 38.0271 31.5218C38.6598 31.5218 39.1581 31.3268 39.5221 30.9368C39.8861 30.5468 40.0681 29.9792 40.0681 29.2338V25.3208H41.2511ZM44.4316 22.8248V32.4448H43.2486V22.8248H44.4316ZM47.8908 26.2958V30.4948C47.8908 30.8415 47.9644 31.0885 48.1118 31.2358C48.2591 31.3745 48.5148 31.4438 48.8788 31.4438H49.7498V32.4448H48.6838C48.0251 32.4448 47.5311 32.2932 47.2018 31.9898C46.8724 31.6865 46.7078 31.1882 46.7078 30.4948V26.2958H45.7848V25.3208H46.7078V23.5268H47.8908V25.3208H49.7498V26.2958H47.8908ZM50.7411 28.8568C50.7411 28.1288 50.8885 27.4918 51.1831 26.9458C51.4778 26.3912 51.8808 25.9622 52.3921 25.6588C52.9121 25.3555 53.4885 25.2038 54.1211 25.2038C54.7451 25.2038 55.2868 25.3382 55.7461 25.6068C56.2055 25.8755 56.5478 26.2135 56.7731 26.6208V25.3208H57.9691V32.4448H56.7731V31.1188C56.5391 31.5348 56.1881 31.8815 55.7201 32.1588C55.2608 32.4275 54.7235 32.5618 54.1081 32.5618C53.4755 32.5618 52.9035 32.4058 52.3921 32.0938C51.8808 31.7818 51.4778 31.3442 51.1831 30.7808C50.8885 30.2175 50.7411 29.5762 50.7411 28.8568ZM56.7731 28.8698C56.7731 28.3325 56.6648 27.8645 56.4481 27.4658C56.2315 27.0672 55.9368 26.7638 55.5641 26.5558C55.2001 26.3392 54.7971 26.2308 54.3551 26.2308C53.9131 26.2308 53.5101 26.3348 53.1461 26.5428C52.7821 26.7508 52.4918 27.0542 52.2751 27.4528C52.0585 27.8515 51.9501 28.3195 51.9501 28.8568C51.9501 29.4028 52.0585 29.8795 52.2751 30.2868C52.4918 30.6855 52.7821 30.9932 53.1461 31.2098C53.5101 31.4178 53.9131 31.5218 54.3551 31.5218C54.7971 31.5218 55.2001 31.4178 55.5641 31.2098C55.9368 30.9932 56.2315 30.6855 56.4481 30.2868C56.6648 29.8795 56.7731 29.4072 56.7731 28.8698ZM61.4113 26.2958V30.4948C61.4113 30.8415 61.485 31.0885 61.6323 31.2358C61.7796 31.3745 62.0353 31.4438 62.3993 31.4438H63.2703V32.4448H62.2043C61.5456 32.4448 61.0516 32.2932 60.7223 31.9898C60.393 31.6865 60.2283 31.1882 60.2283 30.4948V26.2958H59.3053V25.3208H60.2283V23.5268H61.4113V25.3208H63.2703V26.2958H61.4113ZM65.3146 24.1638C65.0893 24.1638 64.8986 24.0858 64.7426 23.9298C64.5866 23.7738 64.5086 23.5832 64.5086 23.3578C64.5086 23.1325 64.5866 22.9418 64.7426 22.7858C64.8986 22.6298 65.0893 22.5518 65.3146 22.5518C65.5313 22.5518 65.7133 22.6298 65.8606 22.7858C66.0166 22.9418 66.0946 23.1325 66.0946 23.3578C66.0946 23.5832 66.0166 23.7738 65.8606 23.9298C65.7133 24.0858 65.5313 24.1638 65.3146 24.1638ZM65.8866 25.3208V32.4448H64.7036V25.3208H65.8866ZM71.0099 32.5618C70.3425 32.5618 69.7359 32.4102 69.1899 32.1068C68.6525 31.8035 68.2279 31.3745 67.9159 30.8198C67.6125 30.2565 67.4609 29.6065 67.4609 28.8698C67.4609 28.1418 67.6169 27.5005 67.9289 26.9458C68.2495 26.3825 68.6829 25.9535 69.2289 25.6588C69.7749 25.3555 70.3859 25.2038 71.0619 25.2038C71.7379 25.2038 72.3489 25.3555 72.8949 25.6588C73.4409 25.9535 73.8699 26.3782 74.1819 26.9328C74.5025 27.4875 74.6629 28.1332 74.6629 28.8698C74.6629 29.6065 74.4982 30.2565 74.1689 30.8198C73.8482 31.3745 73.4105 31.8035 72.8559 32.1068C72.3012 32.4102 71.6859 32.5618 71.0099 32.5618ZM71.0099 31.5218C71.4345 31.5218 71.8332 31.4222 72.2059 31.2228C72.5785 31.0235 72.8775 30.7245 73.1029 30.3258C73.3369 29.9272 73.4539 29.4418 73.4539 28.8698C73.4539 28.2978 73.3412 27.8125 73.1159 27.4138C72.8905 27.0152 72.5959 26.7205 72.2319 26.5298C71.8679 26.3305 71.4735 26.2308 71.0489 26.2308C70.6155 26.2308 70.2169 26.3305 69.8529 26.5298C69.4975 26.7205 69.2115 27.0152 68.9949 27.4138C68.7782 27.8125 68.6699 28.2978 68.6699 28.8698C68.6699 29.4505 68.7739 29.9402 68.9819 30.3388C69.1985 30.7375 69.4845 31.0365 69.8399 31.2358C70.1952 31.4265 70.5852 31.5218 71.0099 31.5218ZM79.6893 25.1908C80.556 25.1908 81.258 25.4552 81.7953 25.9838C82.3326 26.5038 82.6013 27.2578 82.6013 28.2458V32.4448H81.4313V28.4148C81.4313 27.7042 81.2536 27.1625 80.8983 26.7898C80.543 26.4085 80.0576 26.2178 79.4423 26.2178C78.8183 26.2178 78.32 26.4128 77.9473 26.8028C77.5833 27.1928 77.4013 27.7605 77.4013 28.5058V32.4448H76.2183V25.3208H77.4013V26.3348C77.6353 25.9708 77.9516 25.6892 78.3503 25.4898C78.7576 25.2905 79.204 25.1908 79.6893 25.1908Z" fill="#BCBCBC"/>
<path d="M36.9669 0V5.66667M46.0336 0V5.66667M36.4002 8.5H39.8002M46.6002 8.5H43.2002M36.4002 11.9H39.8002M43.2002 11.9H46.6002M34.7002 2.83333H48.3002C48.6008 2.83333 48.8891 2.95274 49.1016 3.16528C49.3142 3.37782 49.4336 3.66609 49.4336 3.96667V15.3C49.4336 15.6006 49.3142 15.8888 49.1016 16.1014C48.8891 16.3139 48.6008 16.4333 48.3002 16.4333H34.7002C34.3996 16.4333 34.1114 16.3139 33.8988 16.1014C33.6863 15.8888 33.5669 15.6006 33.5669 15.3V3.96667C33.5669 3.66609 33.6863 3.37782 33.8988 3.16528C34.1114 2.95274 34.3996 2.83333 34.7002 2.83333Z" stroke="#BCBCBC" stroke-width="1.25"/>
</svg>
