<svg width="412" height="631" viewBox="0 0 412 631" fill="none" xmlns="http://www.w3.org/2000/svg">
<path d="M179 134.5C200.058 134.5 219.171 146.527 233.039 166.068C246.907 185.609 255.5 212.63 255.5 242.5C255.5 272.37 246.907 299.391 233.039 318.932C219.171 338.473 200.058 350.5 179 350.5C157.942 350.5 138.829 338.473 124.961 318.932C111.093 299.391 102.5 272.37 102.5 242.5C102.5 212.63 111.093 185.609 124.961 166.068C138.829 146.527 157.942 134.5 179 134.5Z" stroke="white"/>
<path d="M301.5 192.5C344.235 192.5 382.973 216.95 411.047 256.579C439.12 296.207 456.5 350.978 456.5 411.5C456.5 472.022 439.12 526.793 411.047 566.421C382.973 606.05 344.235 630.5 301.5 630.5C258.765 630.5 220.027 606.05 191.953 566.421C163.88 526.793 146.5 472.022 146.5 411.5C146.5 350.978 163.88 296.207 191.953 256.579C220.027 216.95 258.765 192.5 301.5 192.5Z" stroke="white"/>
<path d="M191 -30.5C251.262 -30.5 305.876 5.13528 345.444 62.8623C385.011 120.587 409.5 200.36 409.5 288.5C409.5 376.64 385.011 456.413 345.444 514.138C305.876 571.865 251.262 607.5 191 607.5C130.738 607.5 76.1244 571.865 36.5557 514.138C-3.01136 456.413 -27.5 376.64 -27.5 288.5C-27.5 200.36 -3.01136 120.587 36.5557 62.8623C76.1244 5.13528 130.738 -30.5 191 -30.5Z" stroke="white"/>
<path d="M292.5 -52.5C333.57 -52.5 370.808 -28.1703 397.8 11.2793C424.79 50.7266 441.5 105.25 441.5 165.5C441.5 225.75 424.79 280.273 397.8 319.721C370.808 359.17 333.57 383.5 292.5 383.5C251.43 383.5 214.192 359.17 187.2 319.721C160.21 280.273 143.5 225.75 143.5 165.5C143.5 105.25 160.21 50.7266 187.2 11.2793C214.192 -28.1703 251.43 -52.5 292.5 -52.5Z" stroke="white"/>
</svg>
