<svg width="45" height="39" viewBox="0 0 45 39" fill="none" xmlns="http://www.w3.org/2000/svg">
<path d="M8.37311 24.8833V33.9443H7.19011V29.8363H2.57511V33.9443H1.39211V24.8833H2.57511V28.8613H7.19011V24.8833H8.37311ZM11.0041 25.6633C10.7788 25.6633 10.5881 25.5853 10.4321 25.4293C10.2761 25.2733 10.1981 25.0827 10.1981 24.8573C10.1981 24.632 10.2761 24.4413 10.4321 24.2853C10.5881 24.1293 10.7788 24.0513 11.0041 24.0513C11.2208 24.0513 11.4028 24.1293 11.5501 24.2853C11.7061 24.4413 11.7841 24.632 11.7841 24.8573C11.7841 25.0827 11.7061 25.2733 11.5501 25.4293C11.4028 25.5853 11.2208 25.6633 11.0041 25.6633ZM11.5761 26.8203V33.9443H10.3931V26.8203H11.5761ZM16.1143 34.0613C15.5683 34.0613 15.0786 33.9703 14.6453 33.7883C14.212 33.5977 13.8696 33.3377 13.6183 33.0083C13.367 32.6703 13.2283 32.2847 13.2023 31.8513H14.4243C14.459 32.2067 14.6236 32.497 14.9183 32.7223C15.2216 32.9477 15.616 33.0603 16.1013 33.0603C16.552 33.0603 16.9073 32.9607 17.1673 32.7613C17.4273 32.562 17.5573 32.3107 17.5573 32.0073C17.5573 31.6953 17.4186 31.4657 17.1413 31.3183C16.864 31.1623 16.435 31.0107 15.8543 30.8633C15.3256 30.7247 14.8923 30.586 14.5543 30.4473C14.225 30.3 13.939 30.0877 13.6963 29.8103C13.4623 29.5243 13.3453 29.1517 13.3453 28.6923C13.3453 28.3283 13.4536 27.9947 13.6703 27.6913C13.887 27.388 14.1946 27.1497 14.5933 26.9763C14.992 26.7943 15.447 26.7033 15.9583 26.7033C16.747 26.7033 17.384 26.9027 17.8693 27.3013C18.3546 27.7 18.6146 28.246 18.6493 28.9393H17.4663C17.4403 28.5667 17.2886 28.2677 17.0113 28.0423C16.7426 27.817 16.3786 27.7043 15.9193 27.7043C15.4946 27.7043 15.1566 27.7953 14.9053 27.9773C14.654 28.1593 14.5283 28.3977 14.5283 28.6923C14.5283 28.9263 14.602 29.1213 14.7493 29.2773C14.9053 29.4247 15.096 29.546 15.3213 29.6413C15.5553 29.728 15.876 29.8277 16.2833 29.9403C16.7946 30.079 17.2106 30.2177 17.5313 30.3563C17.852 30.4863 18.125 30.6857 18.3503 30.9543C18.5843 31.223 18.7056 31.574 18.7143 32.0073C18.7143 32.3973 18.606 32.7483 18.3893 33.0603C18.1726 33.3723 17.865 33.6193 17.4663 33.8013C17.0763 33.9747 16.6256 34.0613 16.1143 34.0613ZM21.8273 27.7953V31.9943C21.8273 32.341 21.901 32.588 22.0483 32.7353C22.1956 32.874 22.4513 32.9433 22.8153 32.9433H23.6863V33.9443H22.6203C21.9616 33.9443 21.4676 33.7927 21.1383 33.4893C20.809 33.186 20.6443 32.6877 20.6443 31.9943V27.7953H19.7213V26.8203H20.6443V25.0263H21.8273V26.8203H23.6863V27.7953H21.8273ZM28.2267 34.0613C27.5593 34.0613 26.9527 33.9097 26.4067 33.6063C25.8693 33.303 25.4447 32.874 25.1327 32.3193C24.8293 31.756 24.6777 31.106 24.6777 30.3693C24.6777 29.6413 24.8337 29 25.1457 28.4453C25.4663 27.882 25.8997 27.453 26.4457 27.1583C26.9917 26.855 27.6027 26.7033 28.2787 26.7033C28.9547 26.7033 29.5657 26.855 30.1117 27.1583C30.6577 27.453 31.0867 27.8777 31.3987 28.4323C31.7193 28.987 31.8797 29.6327 31.8797 30.3693C31.8797 31.106 31.715 31.756 31.3857 32.3193C31.065 32.874 30.6273 33.303 30.0727 33.6063C29.518 33.9097 28.9027 34.0613 28.2267 34.0613ZM28.2267 33.0213C28.6513 33.0213 29.05 32.9217 29.4227 32.7223C29.7953 32.523 30.0943 32.224 30.3197 31.8253C30.5537 31.4267 30.6707 30.9413 30.6707 30.3693C30.6707 29.7973 30.558 29.312 30.3327 28.9133C30.1073 28.5147 29.8127 28.22 29.4487 28.0293C29.0847 27.83 28.6903 27.7303 28.2657 27.7303C27.8323 27.7303 27.4337 27.83 27.0697 28.0293C26.7143 28.22 26.4283 28.5147 26.2117 28.9133C25.995 29.312 25.8867 29.7973 25.8867 30.3693C25.8867 30.95 25.9907 31.4397 26.1987 31.8383C26.4153 32.237 26.7013 32.536 27.0567 32.7353C27.412 32.926 27.802 33.0213 28.2267 33.0213ZM34.6181 27.9773C34.8261 27.57 35.1207 27.2537 35.5021 27.0283C35.8921 26.803 36.3644 26.6903 36.9191 26.6903V27.9123H36.6071C35.2811 27.9123 34.6181 28.6317 34.6181 30.0703V33.9443H33.4351V26.8203H34.6181V27.9773ZM44.4207 26.8203L40.1307 37.2983H38.9087L40.3127 33.8663L37.4397 26.8203H38.7527L40.9887 32.5923L43.1987 26.8203H44.4207Z" fill="#BCBCBC"/>
<path d="M20.4238 5V8.69231L23.4238 11" stroke="#B8BDBD" stroke-width="1.5" stroke-linecap="round" stroke-linejoin="round"/>
<path d="M15.8789 15.0693C18.7888 17.7737 23.1403 17.7971 26.0244 15.1279L26.2637 15.3818C23.2507 18.2272 18.6767 18.2005 15.6396 15.3232L15.8789 15.0693ZM26.8926 3.40723C29.5757 6.62557 29.6013 11.4557 26.9482 14.6504L26.7148 14.4033C29.2689 11.3537 29.2476 6.73266 26.6592 3.6543L26.8926 3.40723ZM13.2529 8.30371C13.1752 9.39185 13.3046 10.4876 13.6357 11.5254C13.9679 12.5661 14.4956 13.5254 15.1865 14.3457L14.9521 14.5928C14.2417 13.7416 13.6952 12.7464 13.3496 11.6631C13.0001 10.5675 12.8637 9.40911 12.9473 8.25879L13.2529 8.30371ZM15.9629 4.46582L15.667 4.46484L15.9639 4.15039L15.9629 4.46582ZM15.584 2.61719C18.5966 -0.227836 23.171 -0.200591 26.208 2.67578L25.9678 2.92969C23.0579 0.226623 18.7069 0.202458 15.8232 2.87109L15.584 2.61719ZM14.083 2.72754L14.0811 2.41602L14.3789 2.41406L14.083 2.72754Z" fill="black" stroke="#B8BDBD"/>
</svg>
