<svg width="39" height="41" viewBox="0 0 39 41" fill="none" xmlns="http://www.w3.org/2000/svg">
<path d="M8.09626 26.4949V35.5559H6.91326V31.4479H2.29826V35.5559H1.11526V26.4949H2.29826V30.4729H6.91326V26.4949H8.09626ZM13.2232 35.6729C12.5559 35.6729 11.9492 35.5212 11.4032 35.2179C10.8659 34.9146 10.4412 34.4856 10.1292 33.9309C9.8259 33.3676 9.67423 32.7176 9.67423 31.9809C9.67423 31.2529 9.83023 30.6116 10.1422 30.0569C10.4629 29.4936 10.8962 29.0646 11.4422 28.7699C11.9882 28.4666 12.5992 28.3149 13.2752 28.3149C13.9512 28.3149 14.5622 28.4666 15.1082 28.7699C15.6542 29.0646 16.0832 29.4892 16.3952 30.0439C16.7159 30.5986 16.8762 31.2442 16.8762 31.9809C16.8762 32.7176 16.7116 33.3676 16.3822 33.9309C16.0616 34.4856 15.6239 34.9146 15.0692 35.2179C14.5146 35.5212 13.8992 35.6729 13.2232 35.6729ZM13.2232 34.6329C13.6479 34.6329 14.0466 34.5332 14.4192 34.3339C14.7919 34.1346 15.0909 33.8356 15.3162 33.4369C15.5502 33.0382 15.6672 32.5529 15.6672 31.9809C15.6672 31.4089 15.5546 30.9236 15.3292 30.5249C15.1039 30.1262 14.8092 29.8316 14.4452 29.6409C14.0812 29.4416 13.6869 29.3419 13.2622 29.3419C12.8289 29.3419 12.4302 29.4416 12.0662 29.6409C11.7109 29.8316 11.4249 30.1262 11.2082 30.5249C10.9916 30.9236 10.8832 31.4089 10.8832 31.9809C10.8832 32.5616 10.9872 33.0512 11.1952 33.4499C11.4119 33.8486 11.6979 34.1476 12.0532 34.3469C12.4086 34.5376 12.7986 34.6329 13.2232 34.6329ZM26.9987 28.3019C27.5533 28.3019 28.0473 28.4189 28.4807 28.6529C28.914 28.8782 29.2563 29.2206 29.5077 29.6799C29.759 30.1392 29.8847 30.6982 29.8847 31.3569V35.5559H28.7147V31.5259C28.7147 30.8152 28.537 30.2736 28.1817 29.9009C27.835 29.5196 27.3627 29.3289 26.7647 29.3289C26.1493 29.3289 25.6597 29.5282 25.2957 29.9269C24.9317 30.3169 24.7497 30.8846 24.7497 31.6299V35.5559H23.5797V31.5259C23.5797 30.8152 23.402 30.2736 23.0467 29.9009C22.7 29.5196 22.2277 29.3289 21.6297 29.3289C21.0143 29.3289 20.5247 29.5282 20.1607 29.9269C19.7967 30.3169 19.6147 30.8846 19.6147 31.6299V35.5559H18.4317V28.4319H19.6147V29.4589C19.8487 29.0862 20.1607 28.8002 20.5507 28.6009C20.9493 28.4016 21.387 28.3019 21.8637 28.3019C22.4617 28.3019 22.9903 28.4362 23.4497 28.7049C23.909 28.9736 24.2513 29.3679 24.4767 29.8879C24.676 29.3852 25.0053 28.9952 25.4647 28.7179C25.924 28.4406 26.4353 28.3019 26.9987 28.3019ZM38.3252 31.7209C38.3252 31.9462 38.3122 32.1846 38.2862 32.4359H32.5922C32.6356 33.1379 32.8739 33.6882 33.3072 34.0869C33.7492 34.4769 34.2822 34.6719 34.9062 34.6719C35.4176 34.6719 35.8422 34.5549 36.1802 34.3209C36.5269 34.0782 36.7696 33.7576 36.9082 33.3589H38.1822C37.9916 34.0436 37.6102 34.6026 37.0382 35.0359C36.4662 35.4606 35.7556 35.6729 34.9062 35.6729C34.2302 35.6729 33.6236 35.5212 33.0862 35.2179C32.5576 34.9146 32.1416 34.4856 31.8382 33.9309C31.5349 33.3676 31.3832 32.7176 31.3832 31.9809C31.3832 31.2442 31.5306 30.5986 31.8252 30.0439C32.1199 29.4892 32.5316 29.0646 33.0602 28.7699C33.5976 28.4666 34.2129 28.3149 34.9062 28.3149C35.5822 28.3149 36.1802 28.4622 36.7002 28.7569C37.2202 29.0516 37.6189 29.4589 37.8962 29.9789C38.1822 30.4902 38.3252 31.0709 38.3252 31.7209ZM37.1032 31.4739C37.1032 31.0232 37.0036 30.6376 36.8042 30.3169C36.6049 29.9876 36.3319 29.7406 35.9852 29.5759C35.6472 29.4026 35.2702 29.3159 34.8542 29.3159C34.2562 29.3159 33.7449 29.5066 33.3202 29.8879C32.9042 30.2692 32.6659 30.7979 32.6052 31.4739H37.1032Z" fill="#BCBCBC"/>
<path d="M7.28571 17.765H12.0326V11.4951C12.0326 11.2127 12.1324 10.976 12.3321 10.785C12.531 10.5932 12.7774 10.4972 13.0714 10.4972H16.9286C17.2226 10.4972 17.4694 10.5932 17.6691 10.785C17.868 10.976 17.9674 11.2127 17.9674 11.4951V17.765H22.7143V7.03068C22.7143 6.90389 22.6856 6.78863 22.6281 6.68489C22.5707 6.58115 22.4923 6.49059 22.3929 6.41319L15.4706 1.40169C15.3386 1.29137 15.1817 1.2362 15 1.2362C14.8183 1.2362 14.6619 1.29137 14.5307 1.40169L7.60714 6.41319C7.50857 6.49223 7.43014 6.5828 7.37186 6.68489C7.31357 6.78698 7.28486 6.90224 7.28571 7.03068V17.765ZM6 17.765V7.03068C6 6.71453 6.07371 6.41525 6.22114 6.13286C6.36857 5.85046 6.57171 5.61787 6.83057 5.4351L13.7541 0.398896C14.1167 0.132966 14.5307 0 14.9961 0C15.4616 0 15.8781 0.132966 16.2459 0.398896L23.1694 5.43387C23.4291 5.61664 23.6323 5.84964 23.7789 6.13286C23.9263 6.41525 24 6.71453 24 7.03068V17.765C24 18.096 23.8719 18.3846 23.6156 18.6307C23.3593 18.8769 23.0589 19 22.7143 19H17.7206C17.4257 19 17.1789 18.9045 16.98 18.7135C16.7811 18.5217 16.6817 18.2845 16.6817 18.0021V11.7334H13.3183V18.0021C13.3183 18.2854 13.2189 18.5225 13.02 18.7135C12.8211 18.9045 12.5747 19 12.2807 19H7.28571C6.94114 19 6.64071 18.8769 6.38443 18.6307C6.12814 18.3846 6 18.096 6 17.765Z" fill="#BCBCBC"/>
</svg>
