<svg width="186" height="56" viewBox="0 0 186 56" fill="none" xmlns="http://www.w3.org/2000/svg">
<path d="M20.6476 0C18.5822 0 17.2066 1.38215 17.2066 3.45492V17.2764H3.44095C1.37657 17.2764 0 18.6577 0 20.7314V24.1863C0 26.26 1.37657 27.6412 3.44095 27.6412H17.2066V41.4627C17.2066 43.5355 18.5822 44.9176 20.6476 44.9176H24.0885C26.1538 44.9176 27.5295 43.5355 27.5295 41.4627V27.6412H41.2951C43.3595 27.6412 44.7361 26.26 44.7361 24.1863V20.7314C44.7361 18.6577 43.3595 17.2764 41.2951 17.2764H27.5295V3.45492C27.5295 1.38215 26.1538 0 24.0885 0H20.6476Z" fill="#2CA294"/>
<path d="M46.8662 4.58621C46.8662 2.05332 48.9195 0 51.4524 0H52.9315C55.4644 0 57.5177 2.05331 57.5177 4.58621V40.3314C57.5177 42.8643 55.4644 44.9176 52.9315 44.9176H51.4524C48.9195 44.9176 46.8662 42.8643 46.8662 40.3314V4.58621Z" fill="#2CA294"/>
<path d="M83.7207 37.4042C84.5372 37.4042 85.1942 37.7252 85.691 38.3672C86.2232 39.0091 86.4897 39.8466 86.4897 40.8807C86.4897 42.3059 85.7972 43.3933 84.4132 44.1419C83.2053 44.7483 81.7673 45.2648 80.099 45.6934C78.4652 46.0855 76.9572 46.2811 75.5722 46.2811C72.6607 46.2811 70.1219 45.729 67.9559 44.6238C65.79 43.5187 64.1217 41.9325 62.9501 39.8644C61.7786 37.7963 61.1924 35.3726 61.1924 32.5924C61.1924 29.9535 61.7432 27.601 62.8439 25.5338C63.98 23.4302 65.542 21.8085 67.53 20.6677C69.5543 19.4915 71.8265 18.9028 74.3467 18.9028C76.7969 18.9028 78.9452 19.4372 80.7914 20.5068C82.6377 21.5764 84.0572 23.0914 85.0516 25.0519C86.0815 27.0133 86.596 29.3125 86.596 31.9505C86.596 32.7702 86.4012 33.4122 86.0107 33.8754C85.6556 34.303 85.1225 34.5173 84.4132 34.5173H70.353C70.6009 36.228 71.1518 37.4585 72.0036 38.2071C72.8564 38.9558 74.1165 39.3301 75.7847 39.3301C76.6729 39.3301 77.4894 39.2402 78.235 39.0624C78.9806 38.8481 79.8147 38.5627 80.7383 38.2071C81.2705 37.9928 81.785 37.815 82.2827 37.6719C82.8148 37.4941 83.2939 37.4042 83.7207 37.4042ZM74.6132 25.3195C73.3709 25.3195 72.3764 25.7294 71.6308 26.5491C70.8852 27.3333 70.4416 28.4928 70.2999 30.0256H78.6609C78.4484 26.8879 77.0989 25.3195 74.6132 25.3195Z" fill="#2CA294"/>
<path d="M103.115 18.9028C107.162 18.9028 110.144 19.8835 112.062 21.844C114.015 23.7689 114.99 26.7101 114.99 30.6666V41.8427C114.99 43.1977 114.582 44.2673 113.766 45.0515C112.985 45.8001 111.884 46.1744 110.464 46.1744C109.221 46.1744 108.191 45.8179 107.375 45.1048C106.594 44.3917 106.168 43.4298 106.097 42.217C105.6 43.5009 104.765 44.4984 103.594 45.2115C102.422 45.9246 101.02 46.2811 99.3869 46.2811C97.576 46.2811 95.9422 45.9246 94.4864 45.2115C93.0306 44.4629 91.8768 43.4475 91.0249 42.1636C90.2085 40.8451 89.8003 39.3656 89.8003 37.7252C89.8003 35.8359 90.2793 34.3386 91.2384 33.2334C92.2319 32.0927 93.7948 31.273 95.9245 30.7742C98.055 30.2745 100.931 30.0256 104.552 30.0256H105.99V29.3836C105.99 28.1362 105.706 27.2444 105.138 26.7101C104.57 26.1393 103.612 25.8548 102.262 25.8548C100.806 25.8548 98.6767 26.3536 95.8714 27.352C95.0549 27.6365 94.3624 27.7797 93.7948 27.7797C92.9067 27.7797 92.1965 27.4587 91.6643 26.8168C91.1312 26.1748 90.8656 25.3373 90.8656 24.3033C90.8656 23.5191 91.0249 22.8781 91.3446 22.3784C91.6643 21.8796 92.1788 21.4341 92.889 21.042C94.1313 20.4001 95.6943 19.8835 97.576 19.4915C99.4577 19.0994 101.304 18.9028 103.115 18.9028ZM101.624 39.9178C102.901 39.9178 103.949 39.4723 104.765 38.5815C105.582 37.6541 105.99 36.4778 105.99 35.0517V34.4097H105.138C102.866 34.4097 101.251 34.624 100.292 35.0517C99.3328 35.4438 98.8538 36.1213 98.8538 37.0842C98.8538 37.9039 99.1026 38.5815 99.5994 39.1158C100.132 39.6501 100.806 39.9178 101.624 39.9178Z" fill="#2CA294"/>
<path d="M125.044 46.1744C123.694 46.1744 122.558 45.8179 121.635 45.1048C120.747 44.3562 120.304 43.251 120.304 41.7893V12.3252C120.304 10.8635 120.747 9.75929 121.635 9.01067C122.558 8.26204 123.694 7.88773 125.044 7.88773C126.392 7.88773 127.511 8.26204 128.399 9.01067C129.322 9.75929 129.783 10.8635 129.783 12.3252V41.7893C129.783 43.251 129.322 44.3562 128.399 45.1048C127.511 45.8179 126.392 46.1744 125.044 46.1744Z" fill="#2CA294"/>
<path d="M152.705 39.3834C155.083 39.5257 156.272 40.5953 156.272 42.5913C156.272 43.8396 155.793 44.766 154.834 45.3724C153.876 45.9779 152.509 46.2277 150.734 46.1211L149.242 46.0134C146.047 45.7645 143.615 44.8016 141.947 43.1266C140.313 41.415 139.496 39.0447 139.496 36.0146V26.5491H137.952C135.111 26.5491 133.692 25.3729 133.692 23.0203C133.692 20.7033 135.111 19.5448 137.952 19.5448H139.496V16.0684C139.496 14.7143 139.922 13.6447 140.775 12.8605C141.627 12.0407 142.781 11.6309 144.237 11.6309C145.692 11.6309 146.846 12.0407 147.698 12.8605C148.55 13.6447 148.977 14.7143 148.977 16.0684V19.5448H151.905C154.746 19.5448 156.166 20.7033 156.166 23.0203C156.166 25.3729 154.746 26.5491 151.905 26.5491H148.977V36.8166C148.977 37.4941 149.172 38.064 149.562 38.5272C149.988 38.9913 150.521 39.2402 151.159 39.2758L152.705 39.3834Z" fill="#2CA294"/>
<path d="M176.884 21.6831C177.274 20.7922 177.807 20.1325 178.482 19.7048C179.156 19.2772 179.901 19.0629 180.719 19.0629C181.89 19.0629 182.938 19.4559 183.861 20.2401C184.784 21.0243 185.246 21.9685 185.246 23.0736C185.246 23.68 185.103 24.2677 184.82 24.8385L170.706 53.233C170.28 54.1239 169.712 54.7836 169.002 55.2113C168.327 55.6389 167.581 55.8532 166.765 55.8532C165.593 55.8532 164.546 55.4611 163.623 54.6769C162.735 53.9283 162.291 53.0009 162.291 51.8958C162.291 51.2903 162.452 50.6662 162.77 50.0242L166.233 43.0189L157.178 24.8385C156.895 24.1966 156.752 23.6267 156.752 23.127C156.752 21.9863 157.25 21.0243 158.244 20.2401C159.238 19.4194 160.356 19.0095 161.599 19.0095C162.452 19.0095 163.233 19.2416 163.943 19.7048C164.688 20.1325 165.256 20.7922 165.647 21.6831L171.292 33.9821L176.884 21.6831Z" fill="#2CA294"/>
</svg>
