<svg width="237" height="72" viewBox="0 0 237 72" fill="none" xmlns="http://www.w3.org/2000/svg">
<path d="M26.4164 0C23.774 0 22.014 1.76832 22.014 4.4202V22.1034H4.40233C1.76117 22.1034 0 23.8705 0 26.5236V30.9438C0 33.5969 1.76117 35.364 4.40233 35.364H22.014V53.0472C22.014 55.699 23.774 57.4674 26.4164 57.4674H30.8187C33.461 57.4674 35.221 55.699 35.221 53.0472V35.364H52.8327C55.4739 35.364 57.2351 33.5969 57.2351 30.9438V26.5236C57.2351 23.8705 55.4739 22.1034 52.8327 22.1034H35.221V4.4202C35.221 1.76832 33.461 0 30.8187 0H26.4164Z" fill="#EFF7F6"/>
<path d="M59.9604 4.5862C59.9604 2.05331 62.0137 0 64.5466 0H69.0016C71.5345 0 73.5878 2.05331 73.5878 4.58621V52.8812C73.5878 55.414 71.5345 57.4674 69.0016 57.4674H64.5466C62.0137 57.4674 59.9604 55.414 59.9604 52.8811V4.5862Z" fill="#EFF7F6"/>
<path d="M107.112 47.8547C108.156 47.8547 108.997 48.2654 109.633 49.0867C110.313 49.908 110.654 50.9795 110.654 52.3025C110.654 54.1259 109.768 55.517 107.998 56.4748C106.452 57.2506 104.613 57.9115 102.478 58.4599C100.388 58.9615 98.4586 59.2117 96.6867 59.2117C92.9616 59.2117 89.7135 58.5054 86.9424 57.0914C84.1713 55.6775 82.0369 53.6482 80.538 51.0023C79.0392 48.3564 78.2892 45.2555 78.2892 41.6985C78.2892 38.3223 78.9939 35.3125 80.4021 32.6678C81.8557 29.9764 83.8541 27.9016 86.3975 26.4422C88.9874 24.9372 91.8944 24.1842 95.1187 24.1842C98.2535 24.1842 101.002 24.8678 103.364 26.2362C105.726 27.6047 107.542 29.543 108.815 32.0512C110.132 34.5606 110.79 37.5022 110.79 40.8772C110.79 41.926 110.541 42.7473 110.042 43.34C109.587 43.8871 108.905 44.1613 107.998 44.1613H90.0093C90.3264 46.3498 91.0311 47.9242 92.121 48.882C93.212 49.8398 94.8242 50.3186 96.9585 50.3186C98.0949 50.3186 99.1394 50.2037 100.093 49.9762C101.047 49.7021 102.114 49.3369 103.296 48.882C103.977 48.6078 104.635 48.3803 105.272 48.1971C105.953 47.9697 106.566 47.8547 107.112 47.8547ZM95.4597 32.3936C93.8702 32.3936 92.5979 32.918 91.644 33.9668C90.6901 34.9701 90.1225 36.4535 89.9413 38.4145H100.638C100.366 34.4002 98.6398 32.3936 95.4597 32.3936Z" fill="#EFF7F6"/>
<path d="M131.924 24.1842C137.102 24.1842 140.917 25.4389 143.371 27.9471C145.87 30.4098 147.118 34.1727 147.118 39.2346V53.5332C147.118 55.2668 146.596 56.6353 145.551 57.6386C144.552 58.5963 143.144 59.0752 141.326 59.0752C139.737 59.0752 138.419 58.6191 137.375 57.7068C136.376 56.7945 135.831 55.5637 135.74 54.0121C135.103 55.6547 134.036 56.931 132.537 57.8433C131.038 58.7556 129.244 59.2117 127.155 59.2117C124.838 59.2117 122.748 58.7556 120.885 57.8433C119.023 56.8855 117.547 55.5865 116.457 53.9439C115.412 52.257 114.89 50.3641 114.89 48.2654C114.89 45.8482 115.503 43.9326 116.73 42.5187C118.001 41.0592 120 40.0104 122.725 39.3723C125.451 38.733 129.131 38.4145 133.763 38.4145H135.603V37.5932C135.603 35.9973 135.239 34.8563 134.513 34.1727C133.786 33.4424 132.56 33.0784 130.833 33.0784C128.971 33.0784 126.246 33.7166 122.657 34.994C121.613 35.358 120.727 35.5412 120 35.5412C118.864 35.5412 117.955 35.1305 117.275 34.3092C116.593 33.4879 116.253 32.4164 116.253 31.0934C116.253 30.0901 116.457 29.27 116.866 28.6307C117.275 27.9926 117.933 27.4227 118.841 26.9211C120.431 26.0998 122.431 25.4389 124.838 24.9372C127.245 24.4356 129.608 24.1842 131.924 24.1842ZM130.017 51.0705C131.651 51.0705 132.992 50.5006 134.036 49.3609C135.081 48.1744 135.603 46.6695 135.603 44.8449V44.0236H134.513C131.606 44.0236 129.54 44.2977 128.313 44.8449C127.086 45.3465 126.473 46.2133 126.473 47.4453C126.473 48.4941 126.791 49.3609 127.427 50.0445C128.109 50.7281 128.971 51.0705 130.017 51.0705Z" fill="#EFF7F6"/>
<path d="M159.98 59.0752C158.254 59.0752 156.8 58.6191 155.619 57.7068C154.483 56.749 153.916 55.3351 153.916 53.465V15.7688C153.916 13.8987 154.483 12.486 155.619 11.5282C156.8 10.5704 158.254 10.0915 159.98 10.0915C161.706 10.0915 163.137 10.5704 164.273 11.5282C165.453 12.486 166.044 13.8987 166.044 15.7688V53.465C166.044 55.3351 165.453 56.749 164.273 57.7068C163.137 58.6191 161.706 59.0752 159.98 59.0752Z" fill="#EFF7F6"/>
<path d="M195.369 50.3869C198.412 50.5689 199.934 51.9373 199.934 54.491C199.934 56.0881 199.321 57.2734 198.094 58.0492C196.868 58.8238 195.119 59.1435 192.848 59.007L190.94 58.8693C186.852 58.5509 183.74 57.3189 181.606 55.1758C179.515 52.9861 178.471 49.9535 178.471 46.0769V33.9668H176.495C172.861 33.9668 171.045 32.4619 171.045 29.452C171.045 26.4877 172.861 25.0055 176.495 25.0055H178.471V20.5578C178.471 18.8254 179.016 17.4569 180.107 16.4536C181.197 15.4049 182.673 14.8805 184.535 14.8805C186.398 14.8805 187.874 15.4049 188.964 16.4536C190.054 17.4569 190.6 18.8254 190.6 20.5578V25.0055H194.346C197.981 25.0055 199.798 26.4877 199.798 29.452C199.798 32.4619 197.981 33.9668 194.346 33.9668H190.6V47.1029C190.6 47.9697 190.849 48.6988 191.349 49.2914C191.894 49.8853 192.576 50.2037 193.392 50.2492L195.369 50.3869Z" fill="#EFF7F6"/>
<path d="M226.304 27.7412C226.803 26.6014 227.486 25.7573 228.349 25.2102C229.211 24.6631 230.165 24.3889 231.211 24.3889C232.709 24.3889 234.05 24.8917 235.23 25.895C236.412 26.8983 237.002 28.1063 237.002 29.5202C237.002 30.2961 236.82 31.0479 236.457 31.7782L218.401 68.106C217.856 69.2458 217.128 70.0898 216.22 70.6369C215.356 71.1841 214.403 71.4582 213.358 71.4582C211.859 71.4582 210.519 70.9566 209.338 69.9533C208.202 68.9955 207.635 67.8091 207.635 66.3951C207.635 65.6205 207.84 64.822 208.247 64.0007L212.677 55.0381L201.093 31.7782C200.731 30.9569 200.548 30.2278 200.548 29.5885C200.548 28.1291 201.185 26.8983 202.456 25.895C203.728 24.845 205.159 24.3206 206.749 24.3206C207.84 24.3206 208.839 24.6176 209.747 25.2102C210.701 25.7573 211.428 26.6014 211.927 27.7412L219.149 43.4764L226.304 27.7412Z" fill="#EFF7F6"/>
</svg>
