<svg width="21" height="21" viewBox="0 0 21 21" fill="none" xmlns="http://www.w3.org/2000/svg">
<path d="M14.7842 9.06123C14.7842 9.93683 14.5486 10.7571 14.1356 11.4629M12.7774 12.949C12.0639 13.4559 11.2247 13.7567 10.3516 13.8185C9.47855 13.8802 8.60532 13.7005 7.82759 13.2991C7.04985 12.8976 6.3976 12.2898 5.94226 11.5423C5.48693 10.7949 5.24608 9.93648 5.24609 9.06123M7.34067 4.33509C7.54073 3.80991 7.89101 3.35528 8.3478 3.02791C8.8046 2.70054 9.34768 2.51492 9.90929 2.49423L10.0152 2.49041C10.3859 2.47669 10.7555 2.53786 11.1021 2.67026C11.4486 2.80265 11.7649 3.00356 12.032 3.26097C12.2991 3.51838 12.5115 3.827 12.6567 4.16839C12.8018 4.50978 12.8766 4.87693 12.8766 5.24789V9.06123C12.8766 9.43131 12.806 9.78518 12.6782 10.1095" stroke="#2CA294" stroke-width="1.11278" stroke-linecap="round" stroke-linejoin="round"/>
<path d="M11.4048 11.5631C10.9692 11.8051 10.4779 11.9292 9.97958 11.923C9.48128 11.9168 8.99324 11.7806 8.56376 11.5279C8.13427 11.2751 7.77825 10.9146 7.53092 10.4819C7.28359 10.0493 7.15354 9.55959 7.15363 9.06126V7.15363M3.33838 3.33838L16.6918 16.6918M10.0151 13.8303V17.6456" stroke="#2CA294" stroke-width="1.11278" stroke-linecap="round" stroke-linejoin="round"/>
</svg>
