<svg width="18" height="18" viewBox="0 0 18 18" fill="none" xmlns="http://www.w3.org/2000/svg">
<path d="M14.4662 9.45866H12.2406V7.2331H13.3534C13.6485 7.2331 13.9316 7.11586 14.1403 6.90717C14.3489 6.69849 14.4662 6.41545 14.4662 6.12032V2.78197C14.4662 2.48684 14.3489 2.2038 14.1403 1.99512C13.9316 1.78643 13.6485 1.66919 13.3534 1.66919H4.45115C4.15602 1.66919 3.87298 1.78643 3.66429 1.99512C3.45561 2.2038 3.33837 2.48684 3.33837 2.78197V6.12032C3.33837 6.41545 3.45561 6.69849 3.66429 6.90717C3.87298 7.11586 4.15602 7.2331 4.45115 7.2331H5.56393V9.45866H3.33837C3.04324 9.45866 2.7602 9.5759 2.55151 9.78459C2.34283 9.99328 2.22559 10.2763 2.22559 10.5714V11.6842C2.22559 11.9794 2.34283 12.2624 2.55151 12.4711C2.7602 12.6798 3.04324 12.797 3.33837 12.797H3.89476V15.579C3.89476 15.7265 3.95338 15.868 4.05772 15.9724C4.16207 16.0767 4.30359 16.1354 4.45115 16.1354C4.59871 16.1354 4.74023 16.0767 4.84458 15.9724C4.94892 15.868 5.00754 15.7265 5.00754 15.579V12.797H12.797V15.579C12.797 15.7265 12.8556 15.868 12.96 15.9724C13.0643 16.0767 13.2058 16.1354 13.3534 16.1354C13.501 16.1354 13.6425 16.0767 13.7468 15.9724C13.8512 15.868 13.9098 15.7265 13.9098 15.579V12.797H14.4662C14.7613 12.797 15.0444 12.6798 15.253 12.4711C15.4617 12.2624 15.579 11.9794 15.579 11.6842V10.5714C15.579 10.2763 15.4617 9.99328 15.253 9.78459C15.0444 9.5759 14.7613 9.45866 14.4662 9.45866ZM4.45115 2.78197H13.3534V6.12032H4.45115V2.78197ZM6.67671 7.2331H11.1278V9.45866H6.67671V7.2331ZM14.4662 11.6842H3.33837V10.5714H14.4662V11.6842Z" fill="#2CA294"/>
</svg>
