<svg width="46" height="36" viewBox="0 0 46 36" fill="none" xmlns="http://www.w3.org/2000/svg">
<path d="M6.18069 31L4.02269 27.295H2.59269V31H1.40969V21.939H4.33469C5.01936 21.939 5.59569 22.056 6.06369 22.29C6.54036 22.524 6.89569 22.8403 7.12969 23.239C7.36369 23.6377 7.48069 24.0927 7.48069 24.604C7.48069 25.228 7.29869 25.7783 6.93469 26.255C6.57936 26.7317 6.04203 27.048 5.32269 27.204L7.59769 31H6.18069ZM2.59269 26.346H4.33469C4.97602 26.346 5.45702 26.19 5.77769 25.878C6.09836 25.5573 6.25869 25.1327 6.25869 24.604C6.25869 24.0667 6.09836 23.6507 5.77769 23.356C5.46569 23.0613 4.98469 22.914 4.33469 22.914H2.59269V26.346ZM15.8189 27.165C15.8189 27.3903 15.8059 27.6287 15.7799 27.88H10.0859C10.1292 28.582 10.3675 29.1323 10.8009 29.531C11.2429 29.921 11.7759 30.116 12.3999 30.116C12.9112 30.116 13.3359 29.999 13.6739 29.765C14.0205 29.5223 14.2632 29.2017 14.4019 28.803H15.6759C15.4852 29.4877 15.1039 30.0467 14.5319 30.48C13.9599 30.9047 13.2492 31.117 12.3999 31.117C11.7239 31.117 11.1172 30.9653 10.5799 30.662C10.0512 30.3587 9.6352 29.9297 9.33187 29.375C9.02854 28.8117 8.87687 28.1617 8.87687 27.425C8.87687 26.6883 9.0242 26.0427 9.31887 25.488C9.61354 24.9333 10.0252 24.5087 10.5539 24.214C11.0912 23.9107 11.7065 23.759 12.3999 23.759C13.0759 23.759 13.6739 23.9063 14.1939 24.201C14.7139 24.4957 15.1125 24.903 15.3899 25.423C15.6759 25.9343 15.8189 26.515 15.8189 27.165ZM14.5969 26.918C14.5969 26.4673 14.4972 26.0817 14.2979 25.761C14.0985 25.4317 13.8255 25.1847 13.4789 25.02C13.1409 24.8467 12.7639 24.76 12.3479 24.76C11.7499 24.76 11.2385 24.9507 10.8139 25.332C10.3979 25.7133 10.1595 26.242 10.0989 26.918H14.5969ZM20.0324 29.908L22.2424 23.876H23.5034L20.7084 31H19.3304L16.5354 23.876H17.8094L20.0324 29.908ZM25.2785 22.719C25.0532 22.719 24.8625 22.641 24.7065 22.485C24.5505 22.329 24.4725 22.1383 24.4725 21.913C24.4725 21.6877 24.5505 21.497 24.7065 21.341C24.8625 21.185 25.0532 21.107 25.2785 21.107C25.4952 21.107 25.6772 21.185 25.8245 21.341C25.9805 21.497 26.0585 21.6877 26.0585 21.913C26.0585 22.1383 25.9805 22.329 25.8245 22.485C25.6772 22.641 25.4952 22.719 25.2785 22.719ZM25.8505 23.876V31H24.6675V23.876H25.8505ZM34.3667 27.165C34.3667 27.3903 34.3537 27.6287 34.3277 27.88H28.6337C28.6771 28.582 28.9154 29.1323 29.3487 29.531C29.7907 29.921 30.3237 30.116 30.9477 30.116C31.4591 30.116 31.8837 29.999 32.2217 29.765C32.5684 29.5223 32.8111 29.2017 32.9497 28.803H34.2237C34.0331 29.4877 33.6517 30.0467 33.0797 30.48C32.5077 30.9047 31.7971 31.117 30.9477 31.117C30.2717 31.117 29.6651 30.9653 29.1277 30.662C28.5991 30.3587 28.1831 29.9297 27.8797 29.375C27.5764 28.8117 27.4247 28.1617 27.4247 27.425C27.4247 26.6883 27.5721 26.0427 27.8667 25.488C28.1614 24.9333 28.5731 24.5087 29.1017 24.214C29.6391 23.9107 30.2544 23.759 30.9477 23.759C31.6237 23.759 32.2217 23.9063 32.7417 24.201C33.2617 24.4957 33.6604 24.903 33.9377 25.423C34.2237 25.9343 34.3667 26.515 34.3667 27.165ZM33.1447 26.918C33.1447 26.4673 33.0451 26.0817 32.8457 25.761C32.6464 25.4317 32.3734 25.1847 32.0267 25.02C31.6887 24.8467 31.3117 24.76 30.8957 24.76C30.2977 24.76 29.7864 24.9507 29.3617 25.332C28.9457 25.7133 28.7074 26.242 28.6467 26.918H33.1447ZM45.4182 23.876L43.1952 31H41.9732L40.2572 25.345L38.5412 31H37.3192L35.0832 23.876H36.2922L37.9302 29.856L39.6982 23.876H40.9072L42.6362 29.869L44.2482 23.876H45.4182Z" fill="#BCBCBC"/>
<path d="M17.385 10.616H19.589L24.858 5.346C24.9433 5.24733 25.0077 5.144 25.051 5.036C25.0943 4.928 25.116 4.82067 25.116 4.714C25.116 4.60733 25.0933 4.50167 25.048 4.397C25.0033 4.293 24.94 4.19133 24.858 4.092L23.938 3.142C23.852 3.056 23.7527 2.99167 23.64 2.949C23.5273 2.90633 23.416 2.885 23.306 2.885C23.1993 2.885 23.092 2.90633 22.984 2.949C22.876 2.99167 22.7723 3.056 22.673 3.142L17.385 8.412V10.616ZM18.269 9.73V8.78L21.717 5.332L22.179 5.82L22.648 6.301L19.219 9.73H18.269ZM22.179 5.82L22.648 6.301L21.718 5.331L22.179 5.82ZM22.809 10.615H28.616V9.615H23.81L22.809 10.615ZM14 17.077V1.616C14 1.15533 14.1543 0.771 14.463 0.463C14.7717 0.155 15.1557 0.000666667 15.615 0H30.385C30.845 0 31.229 0.154333 31.537 0.463C31.845 0.771667 31.9993 1.156 32 1.616V12.385C32 12.845 31.8457 13.2293 31.537 13.538C31.2283 13.8467 30.8443 14.0007 30.385 14H17.077L14 17.077ZM16.65 13H30.385C30.5383 13 30.6793 12.936 30.808 12.808C30.9367 12.68 31.0007 12.539 31 12.385V1.615C31 1.46167 30.936 1.32067 30.808 1.192C30.68 1.06333 30.539 0.999333 30.385 1H15.615C15.4617 1 15.3207 1.064 15.192 1.192C15.0633 1.32 14.9993 1.461 15 1.615V14.645L16.65 13Z" fill="#BCBCBC"/>
</svg>
